<?xml version="1.0"?>
<svg xmlns="http://www.w3.org/2000/svg" viewBox="0 0 50 50">
    <path style="line-height:normal;text-indent:0;text-align:start;text-decoration-line:none;text-decoration-style:solid;text-decoration-color:#000;text-transform:none;block-progression:tb;isolation:auto;mix-blend-mode:normal" d="M 28.957031 4 C 24.022446 4 20 8.0224458 20 12.957031 L 20 14 C 20 14.264591 19.894727 14.519336 19.707031 14.707031 C 19.519336 14.894727 19.264591 15 19 15 L 10.886719 15 C 8.5299002 15 6.2697706 15.937261 4.6035156 17.603516 C 2.9372606 19.269771 2 21.5299 2 23.886719 L 2 31.400391 C 2 31.710032 2.0186192 32.015079 2.0507812 32.316406 L 2.0507812 38.400391 C 2.0507812 43.110908 5.8890922 46.949219 10.599609 46.949219 L 39.400391 46.949219 C 44.110908 46.949219 47.949219 43.110908 47.949219 38.400391 L 47.949219 32.316406 C 47.981381 32.015079 48 31.710032 48 31.400391 L 48 13 A 1.0001 1.0001 0 0 0 48 12.982422 C 47.951893 10.314927 47.094504 8.0315875 45.509766 6.4375 C 43.925849 4.8442397 41.655502 3.9911248 39 4 L 28.957031 4 z M 28.957031 6 L 39 6 A 1.0001 1.0001 0 0 0 39.003906 6 C 41.239626 5.99178 42.922035 6.6709938 44.091797 7.8476562 C 45.261564 9.0243189 45.959107 10.750075 46 13.017578 L 46 31.400391 C 46 35.056846 43.056846 38 39.400391 38 L 10.599609 38 C 6.9431546 38 4 35.056846 4 31.400391 L 4 23.886719 C 4 22.059537 4.7258331 20.309323 6.0175781 19.017578 C 7.3093231 17.725833 9.0595368 17 10.886719 17 L 19 17 C 19.795409 17 20.558789 16.683398 21.121094 16.121094 C 21.683398 15.558789 22 14.795409 22 14 L 22 12.957031 C 22 9.1036171 25.103617 6 28.957031 6 z M 33.984375 12.986328 A 1.0001 1.0001 0 0 0 33 14 L 33 22 C 33 24.773666 30.773666 27 28 27 L 17 27 L 17 23 L 12 28 L 17 33 L 17 29 L 28 29 C 31.854334 29 35 25.854334 35 22 L 35 14 A 1.0001 1.0001 0 0 0 33.984375 12.986328 z M 3.9492188 36.841797 C 5.5283426 38.767201 7.9242408 40 10.599609 40 L 39.400391 40 C 42.075759 40 44.471657 38.767201 46.050781 36.841797 L 46.050781 38.400391 C 46.050781 42.083873 43.083873 45.050781 39.400391 45.050781 L 10.599609 45.050781 C 6.9161274 45.050781 3.9492187 42.083873 3.9492188 38.400391 L 3.9492188 36.841797 z" font-weight="400" font-family="sans-serif" white-space="normal" overflow="visible"/>
</svg>
